<?xml version="1.0" encoding="UTF-8"?>
<svg width="205px" height="40px" viewBox="0 0 205 40" version="1.1" xmlns="http://www.w3.org/2000/svg" xmlns:xlink="http://www.w3.org/1999/xlink">
    <!-- Generator: Sketch 50.2 (55047) - http://www.bohemiancoding.com/sketch -->
    <title>Logo</title>
    <desc>Created with Sketch.</desc>
    <defs></defs>
    <g id="Symbols" stroke="none" stroke-width="1" fill="none" fill-rule="evenodd">
        <g id="Basis-Header-1000" transform="translate(-30.000000, -25.000000)">
            <g id="Logo">
                <g transform="translate(30.000000, 25.000000)">
                    <path d="M75.403008,11.605248 L78.202816,11.605248 L78.202816,31.608 L75.403008,31.608 L75.403008,22.37152 L65.618112,22.37152 L65.618112,31.608 L62.818304,31.608 L62.818304,11.605248 L65.618112,11.605248 L65.618112,19.946944 L75.403008,19.946944 L75.403008,11.605248 Z M81.706184,24.132224 C81.706184,22.8044734 81.8986087,21.6451143 82.283464,20.654112 C82.6683193,19.6631097 83.1782448,18.8404939 83.813256,18.18624 C84.4482672,17.5319861 85.1794812,17.041303 86.00692,16.714176 C86.8343588,16.387049 87.6810277,16.223488 88.546952,16.223488 C90.5674421,16.223488 92.1164613,16.853679 93.194056,18.11408 C94.2716507,19.374481 94.81044,21.2939178 94.81044,23.872448 L94.81044,24.31984 C94.81044,24.5026462 94.8008188,24.6710179 94.781576,24.82496 L84.505992,24.82496 C84.6214486,26.3836238 85.0736467,27.567036 85.8626,28.375232 C86.6515533,29.183428 87.8830716,29.58752 89.557192,29.58752 C90.5000874,29.58752 91.2938394,29.5057395 91.938472,29.342176 C92.5831046,29.1786125 93.068977,29.0198621 93.396104,28.86592 L93.771336,31.117312 C93.444209,31.2904969 92.8717454,31.4733004 92.053928,31.665728 C91.2361106,31.8581556 90.3076612,31.954368 89.268552,31.954368 C87.9600441,31.954368 86.8295488,31.7571326 85.877032,31.362656 C84.9245152,30.9681794 84.1403844,30.4245795 83.524616,29.73184 C82.9088476,29.0391005 82.4518388,28.2164848 82.153576,27.263968 C81.8553132,26.3114512 81.706184,25.267547 81.706184,24.132224 Z M92.010632,22.66016 C92.0298748,21.4478659 91.7268058,20.4520679 91.101416,19.672736 C90.4760262,18.8934041 89.6149255,18.503744 88.518088,18.503744 C87.9023196,18.503744 87.3587197,18.6240095 86.887272,18.864544 C86.4158243,19.1050785 86.016543,19.4177687 85.689416,19.802624 C85.362289,20.1874793 85.1073263,20.6300562 84.92452,21.130368 C84.7417138,21.6306798 84.6214483,22.1406054 84.56372,22.66016 L92.010632,22.66016 Z M100.911568,31.608 L98.227216,31.608 L98.227216,16.59872 L100.911568,16.59872 L100.911568,31.608 Z M99.55496,13.885504 C99.0738909,13.885504 98.6649884,13.7267536 98.32824,13.409248 C97.9914917,13.0917424 97.82312,12.6635974 97.82312,12.1248 C97.82312,11.5860026 97.9914917,11.1578576 98.32824,10.840352 C98.6649884,10.5228464 99.0738909,10.364096 99.55496,10.364096 C100.036029,10.364096 100.444932,10.5228464 100.78168,10.840352 C101.118428,11.1578576 101.2868,11.5860026 101.2868,12.1248 C101.2868,12.6635974 101.118428,13.0917424 100.78168,13.409248 C100.444932,13.7267536 100.036029,13.885504 99.55496,13.885504 Z M105.078808,17.03168 C105.694576,16.8777379 106.512382,16.7141769 107.532248,16.540992 C108.552114,16.3678071 109.725905,16.281216 111.053656,16.281216 C112.246707,16.281216 113.237695,16.4495876 114.026648,16.786336 C114.815601,17.1230844 115.445792,17.594525 115.91724,18.200672 C116.388688,18.806819 116.72062,19.5332224 116.913048,20.379904 C117.105476,21.2265856 117.201688,22.1598456 117.201688,23.179712 L117.201688,31.608 L114.517336,31.608 L114.517336,23.756992 C114.517336,22.8333394 114.454798,22.0443979 114.32972,21.390144 C114.204642,20.7358901 113.997785,20.206722 113.709144,19.802624 C113.420503,19.398526 113.035653,19.1050782 112.554584,18.922272 C112.073515,18.7394658 111.476998,18.648064 110.765016,18.648064 C110.476375,18.648064 110.178116,18.6576852 109.870232,18.676928 C109.562348,18.6961708 109.2689,18.7202239 108.98988,18.749088 C108.71086,18.7779521 108.460708,18.8116265 108.239416,18.850112 C108.018124,18.8885975 107.859374,18.9174612 107.76316,18.936704 L107.76316,31.608 L105.078808,31.608 L105.078808,17.03168 Z M120.358688,24.132224 C120.358688,22.8044734 120.551113,21.6451143 120.935968,20.654112 C121.320823,19.6631097 121.830749,18.8404939 122.46576,18.18624 C123.100771,17.5319861 123.831985,17.041303 124.659424,16.714176 C125.486863,16.387049 126.333532,16.223488 127.199456,16.223488 C129.219946,16.223488 130.768965,16.853679 131.84656,18.11408 C132.924155,19.374481 133.462944,21.2939178 133.462944,23.872448 L133.462944,24.31984 C133.462944,24.5026462 133.453323,24.6710179 133.43408,24.82496 L123.158496,24.82496 C123.273953,26.3836238 123.726151,27.567036 124.515104,28.375232 C125.304057,29.183428 126.535576,29.58752 128.209696,29.58752 C129.152591,29.58752 129.946343,29.5057395 130.590976,29.342176 C131.235609,29.1786125 131.721481,29.0198621 132.048608,28.86592 L132.42384,31.117312 C132.096713,31.2904969 131.524249,31.4733004 130.706432,31.665728 C129.888615,31.8581556 128.960165,31.954368 127.921056,31.954368 C126.612548,31.954368 125.482053,31.7571326 124.529536,31.362656 C123.577019,30.9681794 122.792888,30.4245795 122.17712,29.73184 C121.561352,29.0391005 121.104343,28.2164848 120.80608,27.263968 C120.507817,26.3114512 120.358688,25.267547 120.358688,24.132224 Z M130.663136,22.66016 C130.682379,21.4478659 130.37931,20.4520679 129.75392,19.672736 C129.12853,18.8934041 128.267429,18.503744 127.170592,18.503744 C126.554824,18.503744 126.011224,18.6240095 125.539776,18.864544 C125.068328,19.1050785 124.669047,19.4177687 124.34192,19.802624 C124.014793,20.1874793 123.75983,20.6300562 123.577024,21.130368 C123.394218,21.6306798 123.273952,22.1406054 123.216224,22.66016 L130.663136,22.66016 Z M136.87972,17.03168 C137.495488,16.8777379 138.308483,16.7141769 139.318728,16.540992 C140.328973,16.3678071 141.497953,16.281216 142.825704,16.281216 C143.787842,16.281216 144.596026,16.4111027 145.25028,16.67088 C145.904534,16.9306573 146.452944,17.3106962 146.895528,17.811008 C147.030227,17.7147942 147.241895,17.5800969 147.530536,17.406912 C147.819177,17.2337271 148.175163,17.0653555 148.598504,16.901792 C149.021845,16.7382285 149.493285,16.59391 150.01284,16.468832 C150.532395,16.343754 151.090426,16.281216 151.686952,16.281216 C152.841518,16.281216 153.784399,16.4495876 154.515624,16.786336 C155.246849,17.1230844 155.819313,17.5993356 156.233032,18.215104 C156.646751,18.8308724 156.925767,19.5620864 157.070088,20.408768 C157.214409,21.2554496 157.286568,22.1790883 157.286568,23.179712 L157.286568,31.608 L154.602216,31.608 L154.602216,23.756992 C154.602216,22.8718249 154.55892,22.1117472 154.472328,21.476736 C154.385736,20.8417248 154.222175,20.3125568 153.98164,19.889216 C153.741105,19.4658752 153.413983,19.153185 153.000264,18.951136 C152.586545,18.749087 152.052566,18.648064 151.398312,18.648064 C150.493902,18.648064 149.748256,18.7683295 149.161352,19.008864 C148.574448,19.2493985 148.175166,19.4658764 147.963496,19.658304 C148.117438,20.1586158 148.232893,20.7070264 148.309864,21.303552 C148.386835,21.9000776 148.42532,22.5254581 148.42532,23.179712 L148.42532,31.608 L145.740968,31.608 L145.740968,23.756992 C145.740968,22.8718249 145.692862,22.1117472 145.596648,21.476736 C145.500434,20.8417248 145.332063,20.3125568 145.091528,19.889216 C144.850993,19.4658752 144.523871,19.153185 144.110152,18.951136 C143.696433,18.749087 143.172075,18.648064 142.537064,18.648064 C142.267665,18.648064 141.979028,18.6576852 141.671144,18.676928 C141.36326,18.6961708 141.069812,18.7202239 140.790792,18.749088 C140.511772,18.7779521 140.256809,18.8116265 140.025896,18.850112 C139.794983,18.8885975 139.641043,18.9174612 139.564072,18.936704 L139.564072,31.608 L136.87972,31.608 L136.87972,17.03168 Z M166.360688,29.674112 C166.995699,29.674112 167.558542,29.6596801 168.049232,29.630816 C168.539922,29.6019519 168.948825,29.5490351 169.275952,29.472064 L169.275952,24.998144 C169.083524,24.9019302 168.770834,24.8201497 168.337872,24.7528 C167.90491,24.6854503 167.380552,24.651776 166.764784,24.651776 C166.360686,24.651776 165.932541,24.6806397 165.480336,24.738368 C165.028131,24.7960963 164.614418,24.9163618 164.239184,25.099168 C163.86395,25.2819742 163.55126,25.5321264 163.301104,25.849632 C163.050948,26.1671376 162.925872,26.5856614 162.925872,27.105216 C162.925872,28.0673541 163.233752,28.7360301 163.84952,29.111264 C164.465288,29.4864979 165.302336,29.674112 166.360688,29.674112 Z M166.129776,16.223488 C167.207371,16.223488 168.116578,16.3629959 168.857424,16.642016 C169.59827,16.9210361 170.194787,17.3155068 170.646992,17.82544 C171.099197,18.3353732 171.421508,18.9415112 171.613936,19.643872 C171.806364,20.3462328 171.902576,21.1207424 171.902576,21.967424 L171.902576,31.348224 C171.671663,31.3867095 171.349351,31.4396263 170.935632,31.506976 C170.521913,31.5743257 170.055283,31.6368637 169.535728,31.694592 C169.016173,31.7523203 168.453331,31.8052371 167.847184,31.853344 C167.241037,31.9014509 166.63971,31.925504 166.043184,31.925504 C165.196502,31.925504 164.417182,31.8389129 163.7052,31.665728 C162.993218,31.4925431 162.377459,31.2183379 161.857904,30.843104 C161.338349,30.4678701 160.934257,29.9723764 160.645616,29.356608 C160.356975,28.7408396 160.212656,28.0000043 160.212656,27.13408 C160.212656,26.3066412 160.381028,25.5946696 160.717776,24.998144 C161.054524,24.4016184 161.511533,23.9205565 162.088816,23.554944 C162.666099,23.1893315 163.339586,22.9199369 164.109296,22.746752 C164.879007,22.5735671 165.68719,22.486976 166.533872,22.486976 C166.803271,22.486976 167.082287,22.5014079 167.370928,22.530272 C167.659569,22.5591361 167.933775,22.5976211 168.193552,22.645728 C168.453329,22.6938349 168.679428,22.7371305 168.871856,22.775616 C169.064284,22.8141015 169.198981,22.8429652 169.275952,22.862208 L169.275952,22.111744 C169.275952,21.6691605 169.227846,21.2313942 169.131632,20.798432 C169.035418,20.3654698 168.862236,19.9806204 168.61208,19.643872 C168.361924,19.3071236 168.02037,19.037729 167.587408,18.83568 C167.154446,18.633631 166.591603,18.532608 165.898864,18.532608 C165.013697,18.532608 164.239187,18.595146 163.575312,18.720224 C162.911437,18.845302 162.415943,18.9751887 162.088816,19.109888 L161.771312,16.88736 C162.117682,16.7334179 162.694956,16.5842887 163.503152,16.439968 C164.311348,16.2956473 165.186881,16.223488 166.129776,16.223488 Z M175.896632,17.03168 C176.5124,16.8777379 177.330206,16.7141769 178.350072,16.540992 C179.369938,16.3678071 180.543729,16.281216 181.87148,16.281216 C183.064531,16.281216 184.055519,16.4495876 184.844472,16.786336 C185.633425,17.1230844 186.263616,17.594525 186.735064,18.200672 C187.206512,18.806819 187.538444,19.5332224 187.730872,20.379904 C187.9233,21.2265856 188.019512,22.1598456 188.019512,23.179712 L188.019512,31.608 L185.33516,31.608 L185.33516,23.756992 C185.33516,22.8333394 185.272622,22.0443979 185.147544,21.390144 C185.022466,20.7358901 184.815609,20.206722 184.526968,19.802624 C184.238327,19.398526 183.853477,19.1050782 183.372408,18.922272 C182.891339,18.7394658 182.294822,18.648064 181.58284,18.648064 C181.294199,18.648064 180.99594,18.6576852 180.688056,18.676928 C180.380172,18.6961708 180.086724,18.7202239 179.807704,18.749088 C179.528684,18.7779521 179.278532,18.8116265 179.05724,18.850112 C178.835948,18.8885975 178.677198,18.9174612 178.580984,18.936704 L178.580984,31.608 L175.896632,31.608 L175.896632,17.03168 Z M192.013568,17.03168 C192.629336,16.8777379 193.447142,16.7141769 194.467008,16.540992 C195.486874,16.3678071 196.660665,16.281216 197.988416,16.281216 C199.181467,16.281216 200.172455,16.4495876 200.961408,16.786336 C201.750361,17.1230844 202.380552,17.594525 202.852,18.200672 C203.323448,18.806819 203.65538,19.5332224 203.847808,20.379904 C204.040236,21.2265856 204.136448,22.1598456 204.136448,23.179712 L204.136448,31.608 L201.452096,31.608 L201.452096,23.756992 C201.452096,22.8333394 201.389558,22.0443979 201.26448,21.390144 C201.139402,20.7358901 200.932545,20.206722 200.643904,19.802624 C200.355263,19.398526 199.970413,19.1050782 199.489344,18.922272 C199.008275,18.7394658 198.411758,18.648064 197.699776,18.648064 C197.411135,18.648064 197.112876,18.6576852 196.804992,18.676928 C196.497108,18.6961708 196.20366,18.7202239 195.92464,18.749088 C195.64562,18.7779521 195.395468,18.8116265 195.174176,18.850112 C194.952884,18.8885975 194.794134,18.9174612 194.69792,18.936704 L194.69792,31.608 L192.013568,31.608 L192.013568,17.03168 Z" id="Heinemann" fill="#111516"></path>
                    <g id="Segel" fill="#E00019">
                        <path d="M15.0965687,3.79671527 C22.295947,3.79671527 27.8614239,0.89899235 34.2778911,0 C34.3544802,0 34.4395793,0 34.3544802,0.130921216 C25.3254727,12.5160683 24.9510369,26.4548137 32.9928957,38.9446977 C33.0298549,39.0010351 33.0639403,39.0593005 33.0950145,39.1192594 C33.1460739,39.2239963 33.1460739,39.3200052 32.8907768,39.3461895 C32.7803169,39.3550533 32.6693506,39.3550533 32.5588906,39.3461895 C28.5762558,38.9359697 24.6957398,37.4434678 20.7556545,36.1866241 C20.434854,36.0869108 20.1656035,35.8609669 20.006783,35.5582023 C15.692262,27.3276218 16.2454057,17.6132676 20.6535357,9.37395907 C20.8322436,9.03356391 20.4918475,9.10338856 20.4918475,9.10338856 L18.9260253,9.35650291 C18.7805526,9.37631691 18.6535736,9.46748103 18.5856291,9.60088918 C13.1903503,18.7042777 12.8074047,28.5146409 17.9473864,37.7489506 L18.1260943,38.0631616 C18.2026835,38.2028109 18.2197033,38.2900917 18.0324854,38.3162759 C17.904926,38.3231956 17.7770992,38.3231956 17.6495398,38.3162759 C13.8115733,38.3686444 9.1396363,35.2439914 2.74869881,36.5706597 C2.55508495,36.6203849 2.35536228,36.5161011 2.28065412,36.3262734 C-1.20840629,28.6106498 -0.536123917,20.2840604 3.28482273,12.6819018 C3.33389162,12.5610551 3.4562459,12.4893458 3.58266935,12.5073402 C6.14441879,12.7420098 8.72601177,12.4451734 11.1735032,11.6345321 C12.1256261,8.92687816 13.3520919,6.32914763 14.8327617,3.88399608 C14.9178607,3.74434678 14.9944499,3.76180294 15.0965687,3.76180294 M5.65908579,14.9162906 L4.935744,16.5397136 C4.935744,16.5397136 4.87617468,16.6619068 5.00382323,16.6357225 L11.020325,15.6930898 C11.0840386,15.6776073 11.1391416,15.6367903 11.1735032,15.5796247 L12.0244936,13.8951051 C12.0244936,13.8951051 12.0840629,13.7554558 11.9138648,13.7903681 L5.85481357,14.7940974 C5.78284347,14.805982 5.72013713,14.8510018 5.6846155,14.9162906 M17.6580497,6.08347251 L16.8070593,7.76799215 C16.7049405,7.96873802 16.9091782,7.92509761 16.9091782,7.92509761 L23.7171009,6.80790324 L23.8447495,6.80790324 C23.953642,6.78692042 24.0491693,6.72054929 24.1085565,6.62461353 C24.3553437,6.1794814 25.0531558,4.87899732 25.0957053,4.81790075 C25.1382548,4.75680418 25.0957053,4.68697954 24.9935864,4.69570762 L17.9899359,5.92636705 C17.875906,5.93952639 17.7732479,6.00333852 17.7091091,6.10092867" id="Shape"></path>
                        <path d="M31.7674696,10.8228205 C31.818529,10.6918993 31.8525686,10.656987 31.9631974,10.6395308 C32.695049,10.5435219 35.4862974,10.115846 36.3713273,9.97619667 L36.6436442,9.97619667 C36.769914,9.95321482 36.8793423,9.87304779 36.9414909,9.75799464 C36.9414909,9.75799464 37.0521196,9.54852069 37.196788,9.19939745 L37.8775802,7.72435175 C37.8775802,7.72435175 37.9456595,7.56724629 37.7499317,7.60215861 L32.967366,8.42259823 C32.695049,8.47496672 32.703559,8.36150167 32.7375986,8.26549278 L33.0609749,7.50614972 C33.5460394,6.38895534 33.9119652,5.55105956 34.2693812,4.8877254 C34.2955609,4.83375758 34.3470355,4.79746153 34.4055396,4.79171651 C39.0774766,4.26803164 42.8303441,2.43513462 48.4894298,2.05109905 C48.5915487,2.05109905 48.6426081,2.12965178 48.5745289,2.24311684 C40.2603532,14.2355002 42.4644182,27.1356041 51.1274999,38.3773725 C51.1870692,38.4471971 51.2211089,38.5781183 51.0424009,38.6130307 C44.0812999,39.6778566 39.8774076,37.1903534 35.3160993,36.1866241 C34.9745098,36.1388743 34.666936,35.9495987 34.465109,35.6629393 C30.38121,28.6796858 29.2299044,20.297418 31.2738952,12.4287874 C31.3334645,12.2193135 31.5717418,11.3115931 31.73343,10.8140924" id="Shape"></path>
                    </g>
                </g>
            </g>
        </g>
    </g>
</svg>