<?xml version="1.0" encoding="UTF-8"?>
<svg width="21px" height="15px" viewBox="0 0 21 15" version="1.1" xmlns="http://www.w3.org/2000/svg" xmlns:xlink="http://www.w3.org/1999/xlink">
    <!-- Generator: Sketch 59.1 (86144) - https://sketch.com -->
    <title>GB-Flag-inactive</title>
    <desc>Created with Sketch.</desc>
    <defs>
        <rect id="path-1" x="0" y="0" width="21" height="15" rx="2"></rect>
        <rect id="path-3" x="0.5" y="0.5" width="20" height="14" rx="1"></rect>
    </defs>
    <g id="Page-1" stroke="none" stroke-width="1" fill="none" fill-rule="evenodd">
        <g id="Footer-Language-1-320" transform="translate(-134.000000, -674.000000)">
            <g id="language-select" transform="translate(0.000000, 596.000000)">
                <g id="Language-2" transform="translate(134.000000, 74.000000)">
                    <g id="Inactive">
                        <g id="GB-Flag-inactive" transform="translate(0.000000, 4.000000)">
                            <mask id="mask-2" fill="white">
                                <use xlink:href="#path-1"></use>
                            </mask>
                            <use id="background" fill="#111516" xlink:href="#path-1"></use>
                            <polygon id="band" fill="#D6D4D1" mask="url(#mask-2)" points="2.99999997 0.999999962 0.9736328 1.02636718 1.00000002 3 17.9817609 14.0280845 20.0187781 13.9910681 19.9817619 12.0280851"></polygon>
                            <polygon id="band" fill="#787573" mask="url(#mask-2)" points="2.00000002 1.00000002 0.999999967 1.99999994 18.9999994 13.9999996 20.0000006 13.0000004"></polygon>
                            <path d="M17.9999999,1.00000001 L20,0.999999992 L20.0000001,2.99999997 C20.0000001,2.99999997 8.25066254,10.3962123 3.01823819,14.028085 C2.95462366,14.0722405 1.02030163,14.0312631 1.02030163,14.0312631 L0.864800044,12.1277289 L17.9999999,1.00000001 L17.9999999,1.00000001 Z" id="band" fill="#D6D4D1" mask="url(#mask-2)"></path>
                            <polygon id="band" fill="#787573" mask="url(#mask-2)" points="19.0428543 0.972170082 20 1.99999999 1.9999997 14.0000002 1.00000001 13"></polygon>
                            <polygon id="cross" fill="#D6D4D1" mask="url(#mask-2)" points="8 1 13 1 13 5 20 5 20 10 13 10 13 14 8 14 8 10 1 10 1 5 8 5"></polygon>
                            <polygon id="cross" fill="#787573" mask="url(#mask-2)" points="9 1 12 1 12 6 20 6 20 9 12 9 12 14 9 14 9 9 1 9 1 6 9 6"></polygon>
                            <mask id="mask-4" fill="white">
                                <use xlink:href="#path-3"></use>
                            </mask>
                            <use id="overlay" stroke-opacity="0.156646286" stroke="#2F343A" xlink:href="#path-3"></use>
                        </g>
                    </g>
                </g>
            </g>
        </g>
    </g>
</svg>