<?xml version="1.0" encoding="UTF-8"?>
<svg width="150px" height="29px" viewBox="0 0 150 29" version="1.1" xmlns="http://www.w3.org/2000/svg" xmlns:xlink="http://www.w3.org/1999/xlink">
    <!-- Generator: Sketch 51.1 (57501) - http://www.bohemiancoding.com/sketch -->
    <title>icon-footer-logo</title>
    <desc>Created with Sketch.</desc>
    <defs></defs>
    <g id="Page-1" stroke="none" stroke-width="1" fill="none" fill-rule="evenodd">
        <g id="icon-footer-logo" fill-rule="nonzero">
            <path d="M55.1707317,8.48780488 L57.2195122,8.48780488 L57.2195122,23.1219512 L55.1707317,23.1219512 L55.1707317,16.3902439 L48,16.3902439 L48,23.1219512 L45.9512195,23.1219512 L45.9512195,8.48780488 L48,8.48780488 L48,14.5609756 L55.1707317,14.5609756 L55.1707317,8.48780488 Z M59.7804878,17.6341463 C59.7804878,16.6829268 59.9268293,15.804878 60.2195122,15.0731707 C60.5121951,14.3414634 60.8780488,13.7560976 61.3170732,13.2439024 C61.7560976,12.7317073 62.3414634,12.4390244 62.9268293,12.1463415 C63.5121951,11.8536585 64.1707317,11.7804878 64.7560976,11.7804878 C66.2195122,11.7804878 67.3902439,12.2195122 68.1219512,13.1707317 C68.9268293,14.1219512 69.2926829,15.5121951 69.2926829,17.4146341 L69.2926829,17.7073171 C69.2926829,17.8536585 69.2926829,18 69.2926829,18.0731707 L61.8292683,18.0731707 C61.902439,19.2439024 62.2682927,20.0487805 62.8536585,20.7073171 C63.4390244,21.2926829 64.3170732,21.5853659 65.5609756,21.5853659 C66.2195122,21.5853659 66.804878,21.5121951 67.3170732,21.4390244 C67.7560976,21.2926829 68.1219512,21.2195122 68.4146341,21.0731707 L68.7073171,22.7560976 C68.4878049,22.902439 68.0487805,23.0487805 67.4634146,23.1219512 C66.8780488,23.2682927 66.2195122,23.3414634 65.4146341,23.3414634 C64.4634146,23.3414634 63.6585366,23.195122 62.9268293,22.902439 C62.195122,22.6097561 61.6829268,22.2439024 61.1707317,21.7317073 C60.6585366,21.2195122 60.3658537,20.6341463 60.1463415,19.902439 C59.9268293,19.2439024 59.7804878,18.5121951 59.7804878,17.6341463 Z M67.3170732,16.6097561 C67.3170732,15.7317073 67.097561,15 66.6585366,14.4146341 C66.2195122,13.8292683 65.5609756,13.5365854 64.7560976,13.5365854 C64.3170732,13.5365854 63.8780488,13.6097561 63.5853659,13.8292683 C63.2195122,13.9756098 62.9268293,14.2682927 62.7073171,14.4878049 C62.4878049,14.7073171 62.2682927,15.0731707 62.1219512,15.4390244 C61.9756098,15.804878 61.902439,16.1707317 61.8292683,16.5365854 L67.3170732,16.5365854 L67.3170732,16.6097561 Z M73.8292683,23.1219512 L71.8536585,23.1219512 L71.8536585,12.1463415 L73.8292683,12.1463415 L73.8292683,23.1219512 Z M72.8780488,10.1707317 C72.5121951,10.1707317 72.2195122,10.0243902 72,9.80487805 C71.7804878,9.58536585 71.6341463,9.29268293 71.6341463,8.85365854 C71.6341463,8.41463415 71.7804878,8.12195122 72,7.90243902 C72.2195122,7.68292683 72.5121951,7.53658537 72.8780488,7.53658537 C73.2439024,7.53658537 73.5365854,7.68292683 73.7560976,7.90243902 C73.9756098,8.12195122 74.1219512,8.41463415 74.1219512,8.85365854 C74.1219512,9.29268293 73.9756098,9.58536585 73.7560976,9.80487805 C73.4634146,10.0243902 73.1707317,10.1707317 72.8780488,10.1707317 Z M76.902439,12.4390244 C77.3414634,12.2926829 77.9268293,12.2195122 78.7317073,12.0731707 C79.4634146,11.9268293 80.3414634,11.8536585 81.2926829,11.8536585 C82.1707317,11.8536585 82.902439,12 83.4878049,12.2195122 C84.0731707,12.4390244 84.5121951,12.804878 84.8780488,13.2439024 C85.2439024,13.6829268 85.4634146,14.195122 85.6097561,14.8536585 C85.7560976,15.5121951 85.8292683,16.1707317 85.8292683,16.902439 L85.8292683,23.0487805 L83.8536585,23.0487805 L83.8536585,17.2682927 C83.8536585,16.6097561 83.7804878,16.0243902 83.7073171,15.5121951 C83.6341463,15 83.4878049,14.6341463 83.2682927,14.3414634 C83.0487805,14.0487805 82.7560976,13.8292683 82.3902439,13.6829268 C82.0243902,13.5365854 81.5853659,13.4634146 81.0731707,13.4634146 C80.8536585,13.4634146 80.6341463,13.4634146 80.4146341,13.4634146 C80.195122,13.4634146 79.9756098,13.4634146 79.7560976,13.5365854 C79.5365854,13.5365854 79.3902439,13.6097561 79.1707317,13.6097561 C79.0243902,13.6097561 78.8780488,13.6829268 78.804878,13.6829268 L78.804878,22.9756098 L76.8292683,22.9756098 L76.8292683,12.4390244 L76.902439,12.4390244 Z M88.097561,17.6341463 C88.097561,16.6829268 88.2439024,15.804878 88.5365854,15.0731707 C88.8292683,14.3414634 89.195122,13.7560976 89.6341463,13.2439024 C90.0731707,12.7317073 90.6585366,12.4390244 91.2439024,12.1463415 C91.8292683,11.8536585 92.4878049,11.7804878 93.0731707,11.7804878 C94.5365854,11.7804878 95.7073171,12.2195122 96.4390244,13.1707317 C97.1707317,14.1219512 97.6097561,15.5121951 97.6097561,17.4146341 L97.6097561,17.7073171 C97.6097561,17.8536585 97.6097561,18 97.6097561,18.0731707 L90.0731707,18.0731707 C90.1463415,19.2439024 90.5121951,20.0487805 91.097561,20.7073171 C91.6829268,21.2926829 92.5609756,21.5853659 93.804878,21.5853659 C94.4634146,21.5853659 95.0487805,21.5121951 95.5609756,21.4390244 C96,21.2926829 96.3658537,21.2195122 96.6585366,21.0731707 L96.9512195,22.7560976 C96.7317073,22.902439 96.2926829,23.0487805 95.7073171,23.1219512 C95.1219512,23.2682927 94.4634146,23.3414634 93.6585366,23.3414634 C92.7073171,23.3414634 91.902439,23.195122 91.1707317,22.902439 C90.4390244,22.6097561 89.9268293,22.2439024 89.4146341,21.7317073 C88.9756098,21.2195122 88.6097561,20.6341463 88.3902439,19.902439 C88.1707317,19.2439024 88.097561,18.5121951 88.097561,17.6341463 Z M95.6341463,16.6097561 C95.6341463,15.7317073 95.4146341,15 94.9756098,14.4146341 C94.5365854,13.8292683 93.8780488,13.5365854 93.0731707,13.5365854 C92.6341463,13.5365854 92.195122,13.6097561 91.902439,13.8292683 C91.5365854,13.9756098 91.2439024,14.2682927 91.0243902,14.4878049 C90.804878,14.7073171 90.5853659,15.0731707 90.4390244,15.4390244 C90.2926829,15.804878 90.2195122,16.1707317 90.1463415,16.5365854 L95.6341463,16.5365854 L95.6341463,16.6097561 Z M100.170732,12.4390244 C100.609756,12.2926829 101.195122,12.2195122 101.926829,12.0731707 C102.658537,11.9268293 103.536585,11.8536585 104.487805,11.8536585 C105.219512,11.8536585 105.804878,11.9268293 106.243902,12.1463415 C106.756098,12.3658537 107.121951,12.5853659 107.414634,12.9512195 C107.487805,12.8780488 107.634146,12.804878 107.853659,12.6585366 C108.073171,12.5121951 108.292683,12.4390244 108.658537,12.2926829 C108.95122,12.1463415 109.317073,12.0731707 109.682927,12 C110.04878,11.9268293 110.487805,11.8536585 110.926829,11.8536585 C111.804878,11.8536585 112.463415,12 112.97561,12.2195122 C113.487805,12.4390244 113.926829,12.804878 114.219512,13.2439024 C114.512195,13.6829268 114.731707,14.195122 114.804878,14.8536585 C114.878049,15.4390244 114.95122,16.1707317 114.95122,16.902439 L114.95122,23.0487805 L112.97561,23.0487805 L112.97561,17.2682927 C112.97561,16.6097561 112.97561,16.097561 112.902439,15.5853659 C112.829268,15.1463415 112.682927,14.7073171 112.536585,14.4146341 C112.390244,14.1219512 112.097561,13.902439 111.804878,13.7560976 C111.512195,13.6097561 111.146341,13.5365854 110.634146,13.5365854 C109.97561,13.5365854 109.390244,13.6097561 109.02439,13.8292683 C108.585366,13.9756098 108.292683,14.195122 108.146341,14.2682927 C108.292683,14.6341463 108.365854,15 108.365854,15.4390244 C108.439024,15.8780488 108.439024,16.3170732 108.439024,16.8292683 L108.439024,22.9756098 L106.463415,22.9756098 L106.463415,17.195122 C106.463415,16.5365854 106.463415,16.0243902 106.390244,15.5121951 C106.317073,15.0731707 106.170732,14.6341463 106.02439,14.3414634 C105.878049,14.0487805 105.585366,13.8292683 105.292683,13.6829268 C105,13.5365854 104.634146,13.4634146 104.121951,13.4634146 C103.902439,13.4634146 103.682927,13.4634146 103.463415,13.4634146 C103.243902,13.4634146 103.02439,13.4634146 102.804878,13.5365854 C102.585366,13.6097561 102.439024,13.6097561 102.219512,13.6097561 C102.073171,13.6097561 101.926829,13.6829268 101.853659,13.6829268 L101.853659,22.9756098 L99.8780488,22.9756098 L99.8780488,12.4390244 L100.170732,12.4390244 Z M121.756098,21.7317073 C122.195122,21.7317073 122.634146,21.7317073 123,21.7317073 C123.365854,21.7317073 123.658537,21.6585366 123.878049,21.5853659 L123.878049,18.2926829 C123.731707,18.2195122 123.512195,18.1463415 123.219512,18.1463415 C122.926829,18.0731707 122.487805,18.0731707 122.04878,18.0731707 C121.756098,18.0731707 121.463415,18.0731707 121.097561,18.1463415 C120.731707,18.2195122 120.439024,18.2926829 120.219512,18.4390244 C119.926829,18.5853659 119.707317,18.7317073 119.560976,19.0243902 C119.341463,19.2439024 119.268293,19.5365854 119.268293,19.9756098 C119.268293,20.7073171 119.487805,21.1463415 119.926829,21.4390244 C120.365854,21.5853659 120.95122,21.7317073 121.756098,21.7317073 Z M121.536585,11.8536585 C122.341463,11.8536585 123,11.9268293 123.512195,12.1463415 C124.02439,12.3658537 124.463415,12.6585366 124.829268,13.0243902 C125.195122,13.3902439 125.414634,13.8292683 125.560976,14.3414634 C125.707317,14.8536585 125.780488,15.4390244 125.780488,16.0243902 L125.780488,22.902439 C125.634146,22.902439 125.341463,22.9756098 125.04878,23.0487805 C124.756098,23.1219512 124.390244,23.1219512 124.02439,23.195122 C123.658537,23.2682927 123.219512,23.2682927 122.780488,23.3414634 C122.341463,23.3414634 121.902439,23.4146341 121.463415,23.4146341 C120.878049,23.4146341 120.292683,23.3414634 119.780488,23.195122 C119.268293,23.0487805 118.829268,22.902439 118.463415,22.6097561 C118.097561,22.3170732 117.804878,21.9512195 117.585366,21.5121951 C117.365854,21.0731707 117.292683,20.4878049 117.292683,19.902439 C117.292683,19.3170732 117.439024,18.804878 117.658537,18.3658537 C117.878049,17.9268293 118.243902,17.5609756 118.682927,17.3414634 C119.121951,17.0487805 119.634146,16.902439 120.146341,16.7560976 C120.658537,16.6097561 121.317073,16.5365854 121.902439,16.5365854 C122.121951,16.5365854 122.268293,16.5365854 122.487805,16.5365854 C122.707317,16.5365854 122.926829,16.6097561 123.073171,16.6097561 C123.292683,16.6097561 123.439024,16.6829268 123.585366,16.6829268 C123.731707,16.6829268 123.804878,16.7560976 123.878049,16.7560976 L123.878049,16.1707317 C123.878049,15.8780488 123.878049,15.5121951 123.804878,15.2195122 C123.731707,14.9268293 123.585366,14.6341463 123.439024,14.3414634 C123.219512,14.1219512 123,13.902439 122.707317,13.7560976 C122.414634,13.6097561 121.97561,13.5365854 121.463415,13.5365854 C120.804878,13.5365854 120.219512,13.6097561 119.780488,13.6829268 C119.268293,13.7560976 118.902439,13.902439 118.682927,13.9756098 L118.463415,12.3658537 C118.682927,12.2195122 119.121951,12.1463415 119.707317,12.0731707 C120.292683,12 120.878049,11.8536585 121.536585,11.8536585 Z M128.707317,12.4390244 C129.146341,12.2926829 129.731707,12.2195122 130.536585,12.0731707 C131.268293,11.9268293 132.146341,11.8536585 133.097561,11.8536585 C133.97561,11.8536585 134.707317,12 135.292683,12.2195122 C135.878049,12.4390244 136.317073,12.804878 136.682927,13.2439024 C137.04878,13.6829268 137.268293,14.195122 137.414634,14.8536585 C137.560976,15.5121951 137.634146,16.1707317 137.634146,16.902439 L137.634146,23.0487805 L135.658537,23.0487805 L135.658537,17.2682927 C135.658537,16.6097561 135.585366,16.0243902 135.512195,15.5121951 C135.439024,15 135.292683,14.6341463 135.073171,14.3414634 C134.853659,14.0487805 134.560976,13.8292683 134.195122,13.6829268 C133.829268,13.5365854 133.390244,13.4634146 132.878049,13.4634146 C132.658537,13.4634146 132.439024,13.4634146 132.219512,13.4634146 C132,13.4634146 131.780488,13.4634146 131.560976,13.5365854 C131.341463,13.6097561 131.195122,13.6097561 130.97561,13.6097561 C130.829268,13.6097561 130.682927,13.6829268 130.609756,13.6829268 L130.609756,22.9756098 L128.634146,22.9756098 L128.634146,12.4390244 L128.707317,12.4390244 Z M140.487805,12.4390244 C140.926829,12.2926829 141.512195,12.2195122 142.317073,12.0731707 C143.04878,11.9268293 143.926829,11.8536585 144.878049,11.8536585 C145.756098,11.8536585 146.487805,12 147.073171,12.2195122 C147.658537,12.4390244 148.097561,12.804878 148.463415,13.2439024 C148.829268,13.6829268 149.04878,14.195122 149.195122,14.8536585 C149.341463,15.5121951 149.414634,16.1707317 149.414634,16.902439 L149.414634,23.0487805 L147.439024,23.0487805 L147.439024,17.2682927 C147.439024,16.6097561 147.365854,16.0243902 147.292683,15.5121951 C147.219512,15 147.073171,14.6341463 146.853659,14.3414634 C146.634146,14.0487805 146.341463,13.8292683 145.97561,13.6829268 C145.609756,13.5365854 145.170732,13.4634146 144.658537,13.4634146 C144.439024,13.4634146 144.219512,13.4634146 144,13.4634146 C143.780488,13.4634146 143.560976,13.4634146 143.341463,13.5365854 C143.121951,13.6097561 142.97561,13.6097561 142.756098,13.6097561 C142.609756,13.6097561 142.463415,13.6829268 142.390244,13.6829268 L142.390244,22.9756098 L140.487805,22.9756098 L140.487805,12.4390244 Z" id="Heinemann" fill="#FFFFFF"></path>
            <g id="Segel" fill="#E00019">
                <path d="M11.0487805,2.7804878 C16.3170732,2.7804878 20.4146341,0.658536585 25.097561,0 C25.1707317,0 25.2439024,0 25.1707317,0.0731707317 C18.5853659,9.14634146 18.2926829,19.3170732 24.1463415,28.4634146 C24.1463415,28.5365854 24.2195122,28.5365854 24.2195122,28.6097561 C24.2926829,28.6829268 24.2926829,28.7560976 24.0731707,28.7560976 C24,28.7560976 23.9268293,28.7560976 23.8536585,28.7560976 C20.9268293,28.4634146 18.0731707,27.3658537 15.2195122,26.4146341 C15,26.3414634 14.7804878,26.195122 14.7073171,25.9756098 C11.5609756,19.9756098 11.9268293,12.8780488 15.1463415,6.80487805 C15.2926829,6.58536585 15,6.58536585 15,6.58536585 L13.8292683,6.80487805 C13.7560976,6.80487805 13.6097561,6.87804878 13.6097561,6.95121951 C9.65853659,13.6097561 9.36585366,20.7804878 13.1707317,27.5121951 L13.3170732,27.7317073 C13.3902439,27.804878 13.3902439,27.8780488 13.2439024,27.9512195 C13.1707317,27.9512195 13.0243902,27.9512195 12.9512195,27.9512195 C10.1707317,28.0243902 6.73170732,25.6829268 2.04878049,26.7073171 C1.90243902,26.7073171 1.75609756,26.6341463 1.68292683,26.5609756 C-0.87804878,20.9268293 -0.365853659,14.8536585 2.41463415,9.29268293 C2.41463415,9.2195122 2.56097561,9.14634146 2.63414634,9.14634146 C4.53658537,9.29268293 6.36585366,9.07317073 8.19512195,8.48780488 C8.92682927,6.51219512 9.80487805,4.6097561 10.902439,2.7804878 C10.902439,2.70731707 10.9756098,2.7804878 11.0487805,2.7804878 M4.17073171,10.902439 L3.65853659,12.0731707 C3.65853659,12.0731707 3.58536585,12.1463415 3.73170732,12.1463415 L8.12195122,11.4878049 C8.19512195,11.4878049 8.19512195,11.4146341 8.26829268,11.4146341 L8.92682927,10.1707317 C8.92682927,10.1707317 9,10.097561 8.85365854,10.097561 L4.3902439,10.8292683 C4.24390244,10.8292683 4.17073171,10.902439 4.17073171,10.902439 M12.9512195,4.46341463 L12.2926829,5.70731707 C12.2195122,5.85365854 12.3658537,5.85365854 12.3658537,5.85365854 L17.3414634,5.04878049 L17.4146341,5.04878049 C17.4878049,5.04878049 17.5609756,4.97560976 17.6341463,4.90243902 C17.7804878,4.6097561 18.2926829,3.65853659 18.3658537,3.58536585 C18.4390244,3.51219512 18.3658537,3.51219512 18.2926829,3.51219512 L13.1707317,4.3902439 C13.097561,4.31707317 13.0243902,4.3902439 12.9512195,4.46341463" id="Shape"></path>
                <path d="M23.2682927,7.90243902 C23.3414634,7.82926829 23.3414634,7.75609756 23.4146341,7.75609756 C23.9268293,7.68292683 25.9756098,7.3902439 26.6341463,7.24390244 L26.8536585,7.24390244 C26.9268293,7.24390244 27,7.17073171 27.0731707,7.09756098 C27.0731707,7.09756098 27.1463415,6.95121951 27.2926829,6.65853659 L27.804878,5.56097561 C27.804878,5.56097561 27.8780488,5.41463415 27.7317073,5.48780488 L24.1463415,6.14634146 C23.9268293,6.2195122 23.9268293,6.07317073 24,6 L24.2195122,5.41463415 C24.5853659,4.6097561 24.8780488,3.95121951 25.097561,3.51219512 C25.097561,3.43902439 25.1707317,3.43902439 25.1707317,3.43902439 C28.6097561,3.07317073 31.3170732,1.68292683 35.4878049,1.46341463 C35.5609756,1.46341463 35.6341463,1.53658537 35.5609756,1.6097561 C29.4878049,10.3902439 31.097561,19.8292683 37.4634146,28.0243902 C37.5365854,28.097561 37.5365854,28.1707317 37.3902439,28.1707317 C32.2682927,28.9756098 29.195122,27.1463415 25.902439,26.4146341 C25.6829268,26.4146341 25.4634146,26.2682927 25.2439024,26.0487805 C22.2439024,20.9268293 21.4390244,14.7804878 22.902439,9.07317073 C22.902439,8.92682927 23.1219512,8.26829268 23.2682927,7.90243902" id="Shape_1_"></path>
            </g>
        </g>
    </g>
</svg>